<svg width="16" height="16" viewBox="0 0 16 16" fill="none" xmlns="http://www.w3.org/2000/svg">
<g id="edit-01" clip-path="url(#clip0_262_29269)">
<path id="Icon" d="M1.91769 12.0771C1.94831 11.8014 1.96363 11.6636 2.00533 11.5348C2.04234 11.4205 2.09461 11.3117 2.16075 11.2114C2.2353 11.0984 2.33336 11.0003 2.52948 10.8042L11.3337 2C12.0701 1.26362 13.264 1.26362 14.0003 2C14.7367 2.73638 14.7367 3.93029 14.0003 4.66667L5.19614 13.4709C5.00002 13.667 4.90196 13.765 4.78892 13.8396C4.68862 13.9057 4.57985 13.958 4.46556 13.995C4.33673 14.0367 4.1989 14.052 3.92324 14.0826L1.66699 14.3333L1.91769 12.0771Z" stroke="#FFF" style="stroke:#FFF;stroke:color(display-p3 0.6627 0.6353 0.6157);stroke-opacity:1;" stroke-width="1.5" stroke-linecap="round" stroke-linejoin="round"/>
</g>
<defs>
<clipPath id="clip0_262_29269">
<rect width="16" height="16" fill="white" style="fill:white;fill-opacity:1;"/>
</clipPath>
</defs>
</svg>
