<svg width="18" height="18" viewBox="0 0 18 18" fill="none" xmlns="http://www.w3.org/2000/svg">
<path d="M16.6453 7.03281C16.3508 6.725 16.0461 6.40781 15.9312 6.12891C15.825 5.87344 15.8187 5.45 15.8125 5.03984C15.8008 4.27734 15.7883 3.41328 15.1875 2.8125C14.5867 2.21172 13.7227 2.19922 12.9602 2.1875C12.55 2.18125 12.1266 2.175 11.8711 2.06875C11.593 1.95391 11.275 1.64922 10.9672 1.35469C10.4281 0.836719 9.81563 0.25 9 0.25C8.18437 0.25 7.57266 0.836719 7.03281 1.35469C6.725 1.64922 6.40781 1.95391 6.12891 2.06875C5.875 2.175 5.45 2.18125 5.03984 2.1875C4.27734 2.19922 3.41328 2.21172 2.8125 2.8125C2.21172 3.41328 2.20312 4.27734 2.1875 5.03984C2.18125 5.45 2.175 5.87344 2.06875 6.12891C1.95391 6.40703 1.64922 6.725 1.35469 7.03281C0.836719 7.57188 0.25 8.18437 0.25 9C0.25 9.81563 0.836719 10.4273 1.35469 10.9672C1.64922 11.275 1.95391 11.5922 2.06875 11.8711C2.175 12.1266 2.18125 12.55 2.1875 12.9602C2.19922 13.7227 2.21172 14.5867 2.8125 15.1875C3.41328 15.7883 4.27734 15.8008 5.03984 15.8125C5.45 15.8187 5.87344 15.825 6.12891 15.9312C6.40703 16.0461 6.725 16.3508 7.03281 16.6453C7.57188 17.1633 8.18437 17.75 9 17.75C9.81563 17.75 10.4273 17.1633 10.9672 16.6453C11.275 16.3508 11.5922 16.0461 11.8711 15.9312C12.1266 15.825 12.55 15.8187 12.9602 15.8125C13.7227 15.8008 14.5867 15.7883 15.1875 15.1875C15.7883 14.5867 15.8008 13.7227 15.8125 12.9602C15.8187 12.55 15.825 12.1266 15.9312 11.8711C16.0461 11.593 16.3508 11.275 16.6453 10.9672C17.1633 10.4281 17.75 9.81563 17.75 9C17.75 8.18437 17.1633 7.57266 16.6453 7.03281ZM15.743 10.1023C15.3687 10.493 14.9812 10.8969 14.7758 11.393C14.5789 11.8695 14.5703 12.4141 14.5625 12.9414C14.5547 13.4883 14.5461 14.0609 14.3031 14.3031C14.0602 14.5453 13.4914 14.5547 12.9414 14.5625C12.4141 14.5703 11.8695 14.5789 11.393 14.7758C10.8969 14.9812 10.493 15.3687 10.1023 15.743C9.71172 16.1172 9.3125 16.5 9 16.5C8.6875 16.5 8.28516 16.1156 7.89766 15.743C7.51016 15.3703 7.10313 14.9812 6.60703 14.7758C6.13047 14.5789 5.58594 14.5703 5.05859 14.5625C4.51172 14.5547 3.93906 14.5461 3.69687 14.3031C3.45469 14.0602 3.44531 13.4914 3.4375 12.9414C3.42969 12.4141 3.42109 11.8695 3.22422 11.393C3.01875 10.8969 2.63125 10.493 2.25703 10.1023C1.88281 9.71172 1.5 9.3125 1.5 9C1.5 8.6875 1.88437 8.28516 2.25703 7.89766C2.62969 7.51016 3.01875 7.10313 3.22422 6.60703C3.42109 6.13047 3.42969 5.58594 3.4375 5.05859C3.44531 4.51172 3.45391 3.93906 3.69687 3.69687C3.93984 3.45469 4.50859 3.44531 5.05859 3.4375C5.58594 3.42969 6.13047 3.42109 6.60703 3.22422C7.10313 3.01875 7.50703 2.63125 7.89766 2.25703C8.28828 1.88281 8.6875 1.5 9 1.5C9.3125 1.5 9.71484 1.88437 10.1023 2.25703C10.4898 2.62969 10.8969 3.01875 11.393 3.22422C11.8695 3.42109 12.4141 3.42969 12.9414 3.4375C13.4883 3.44531 14.0609 3.45391 14.3031 3.69687C14.5453 3.93984 14.5547 4.50859 14.5625 5.05859C14.5703 5.58594 14.5789 6.13047 14.7758 6.60703C14.9812 7.10313 15.3687 7.50703 15.743 7.89766C16.1172 8.28828 16.5 8.6875 16.5 9C16.5 9.3125 16.1156 9.71484 15.743 10.1023ZM8.375 9.625V5.25C8.375 5.08424 8.44085 4.92527 8.55806 4.80806C8.67527 4.69085 8.83424 4.625 9 4.625C9.16576 4.625 9.32473 4.69085 9.44194 4.80806C9.55915 4.92527 9.625 5.08424 9.625 5.25V9.625C9.625 9.79076 9.55915 9.94973 9.44194 10.0669C9.32473 10.1842 9.16576 10.25 9 10.25C8.83424 10.25 8.67527 10.1842 8.55806 10.0669C8.44085 9.94973 8.375 9.79076 8.375 9.625ZM9.9375 12.4375C9.9375 12.6229 9.88252 12.8042 9.7795 12.9583C9.67649 13.1125 9.53007 13.2327 9.35876 13.3036C9.18746 13.3746 8.99896 13.3932 8.8171 13.357C8.63525 13.3208 8.4682 13.2315 8.33709 13.1004C8.20598 12.9693 8.11669 12.8023 8.08051 12.6204C8.04434 12.4385 8.06291 12.25 8.13386 12.0787C8.20482 11.9074 8.32498 11.761 8.47915 11.658C8.63332 11.555 8.81458 11.5 9 11.5C9.24864 11.5 9.4871 11.5988 9.66291 11.7746C9.83873 11.9504 9.9375 12.1889 9.9375 12.4375Z" fill="#F75D4D"/>
</svg>
