<svg width="14" height="16" viewBox="0 0 14 16" fill="none" xmlns="http://www.w3.org/2000/svg">
<path d="M13.0672 9.69219L7.44217 15.3172C7.38412 15.3753 7.31519 15.4214 7.23932 15.4529C7.16344 15.4843 7.08212 15.5005 6.99998 15.5005C6.91785 15.5005 6.83652 15.4843 6.76064 15.4529C6.68477 15.4214 6.61584 15.3753 6.55779 15.3172L0.932794 9.69219C0.815518 9.57491 0.749634 9.41585 0.749634 9.25C0.749634 9.08415 0.815518 8.92509 0.932794 8.80781C1.05007 8.69054 1.20913 8.62465 1.37498 8.62465C1.54083 8.62465 1.69989 8.69054 1.81717 8.80781L6.37498 13.3664V1.125C6.37498 0.95924 6.44083 0.800269 6.55804 0.683058C6.67525 0.565848 6.83422 0.5 6.99998 0.5C7.16574 0.5 7.32471 0.565848 7.44192 0.683058C7.55913 0.800269 7.62498 0.95924 7.62498 1.125V13.3664L12.1828 8.80781C12.3001 8.69054 12.4591 8.62465 12.625 8.62465C12.7908 8.62465 12.9499 8.69054 13.0672 8.80781C13.1844 8.92509 13.2503 9.08415 13.2503 9.25C13.2503 9.41585 13.1844 9.57491 13.0672 9.69219Z" fill="#00a3e0"/>
</svg>
