<svg width="24" height="24" viewBox="0 0 24 24" fill="none" xmlns="http://www.w3.org/2000/svg">
<path d="M12 1.5C9.9233 1.5 7.89323 2.11581 6.16652 3.26957C4.4398 4.42332 3.09399 6.0632 2.29927 7.98182C1.50455 9.90045 1.29661 12.0116 1.70176 14.0484C2.1069 16.0852 3.10693 17.9562 4.57538 19.4246C6.04383 20.8931 7.91475 21.8931 9.95155 22.2982C11.9884 22.7034 14.0996 22.4954 16.0182 21.7007C17.9368 20.906 19.5767 19.5602 20.7304 17.8335C21.8842 16.1068 22.5 14.0767 22.5 12C22.4971 9.21613 21.3899 6.54712 19.4214 4.57862C17.4529 2.61013 14.7839 1.50294 12 1.5ZM12.8077 3.15274C13.3545 3.20264 13.8953 3.30405 14.4231 3.45562V20.5484C13.8953 20.7 13.3545 20.8014 12.8077 20.8513V3.15274ZM16.0385 4.08764C16.6141 4.38237 17.1558 4.73921 17.6538 5.15178V18.8482C17.1558 19.2608 16.6141 19.6176 16.0385 19.9124V4.08764ZM3.11539 12C3.11805 9.7843 3.94749 7.64935 5.44137 6.01299C6.93524 4.37664 8.98602 3.35668 11.1923 3.15274V20.8473C8.98602 20.6433 6.93524 19.6234 5.44137 17.987C3.94749 16.3506 3.11805 14.2157 3.11539 12ZM19.2692 17.1026V6.8974C20.3205 8.39126 20.8847 10.1733 20.8847 12C20.8847 13.8267 20.3205 15.6087 19.2692 17.1026Z" fill="#00A3E0"/>
</svg>
