<svg width="24" height="24" viewBox="0 0 24 24" fill="none" xmlns="http://www.w3.org/2000/svg">
<g id="Todo Progress">
<path id="Vector" d="M12 1.5C9.9233 1.5 7.89323 2.11581 6.16652 3.26957C4.4398 4.42332 3.09399 6.0632 2.29927 7.98182C1.50455 9.90045 1.29661 12.0116 1.70176 14.0484C2.1069 16.0852 3.10693 17.9562 4.57538 19.4246C6.04383 20.8931 7.91475 21.8931 9.95155 22.2982C11.9884 22.7034 14.0996 22.4954 16.0182 21.7007C17.9368 20.906 19.5767 19.5602 20.7304 17.8335C21.8842 16.1068 22.5 14.0767 22.5 12C22.4971 9.21613 21.3899 6.54712 19.4214 4.57862C17.4529 2.61013 14.7839 1.50294 12 1.5ZM12 20.8846C10.2428 20.8846 8.52504 20.3635 7.06398 19.3873C5.60291 18.411 4.46414 17.0234 3.79169 15.4C3.11923 13.7765 2.94329 11.9901 3.2861 10.2667C3.62892 8.54325 4.4751 6.96016 5.71763 5.71763C6.96017 4.47509 8.54325 3.62891 10.2667 3.2861C11.9901 2.94328 13.7765 3.11923 15.4 3.79169C17.0234 4.46414 18.411 5.6029 19.3873 7.06397C20.3635 8.52504 20.8846 10.2428 20.8846 12C20.8819 14.3555 19.945 16.6138 18.2794 18.2794C16.6138 19.945 14.3555 20.8819 12 20.8846Z" fill="#2e343e" fill-opacity="0.5"/>
</g>
</svg>
