<svg width="24" height="24" viewBox="0 0 24 24" fill="none" xmlns="http://www.w3.org/2000/svg">
<path d="M12 1.5C9.9233 1.5 7.89323 2.11581 6.16652 3.26957C4.4398 4.42332 3.09399 6.0632 2.29927 7.98182C1.50455 9.90045 1.29661 12.0116 1.70176 14.0484C2.1069 16.0852 3.10693 17.9562 4.57538 19.4246C6.04383 20.8931 7.91475 21.8931 9.95155 22.2982C11.9884 22.7034 14.0996 22.4955 16.0182 21.7007C17.9368 20.906 19.5767 19.5602 20.7304 17.8335C21.8842 16.1068 22.5 14.0767 22.5 12C22.4971 9.21613 21.3899 6.54712 19.4214 4.57863C17.4529 2.61013 14.7839 1.50294 12 1.5Z" fill="#00A3E0"/>
<path fill-rule="evenodd" clip-rule="evenodd" d="M16.5131 9.29835C16.9696 9.71978 16.9981 10.4315 16.5766 10.8881L12.3596 15.4565C11.7549 16.1116 10.7157 16.0978 10.1286 15.4268L7.77834 12.7408C7.36919 12.2732 7.41658 11.5625 7.88417 11.1534C8.35176 10.7442 9.06249 10.7916 9.47163 11.2592L11.2724 13.3172L14.9233 9.36194C15.3448 8.90539 16.0565 8.87692 16.5131 9.29835Z" fill="white"/>
</svg>
