<svg width="18" height="17" viewBox="0 0 18 17" fill="none" xmlns="http://www.w3.org/2000/svg">
<path d="M8.375 1.25V0.625C8.375 0.45924 8.44085 0.300269 8.55806 0.183058C8.67527 0.065848 8.83424 0 9 0C9.16576 0 9.32473 0.065848 9.44194 0.183058C9.55915 0.300269 9.625 0.45924 9.625 0.625V1.25C9.625 1.41576 9.55915 1.57473 9.44194 1.69194C9.32473 1.80915 9.16576 1.875 9 1.875C8.83424 1.875 8.67527 1.80915 8.55806 1.69194C8.44085 1.57473 8.375 1.41576 8.375 1.25ZM14.625 3.75C14.7071 3.75006 14.7884 3.73395 14.8643 3.70259C14.9402 3.67122 15.0091 3.62521 15.0672 3.56719L15.6922 2.94219C15.8095 2.82491 15.8753 2.66585 15.8753 2.5C15.8753 2.33415 15.8095 2.17509 15.6922 2.05781C15.5749 1.94054 15.4159 1.87465 15.25 1.87465C15.0841 1.87465 14.9251 1.94054 14.8078 2.05781L14.1828 2.68281C14.0953 2.77022 14.0357 2.88163 14.0115 3.00293C13.9874 3.12424 13.9998 3.24998 14.0471 3.36424C14.0945 3.47851 14.1746 3.57616 14.2775 3.64483C14.3804 3.71349 14.5013 3.7501 14.625 3.75ZM2.93281 3.56719C2.99088 3.62526 3.05982 3.67132 3.13569 3.70275C3.21156 3.73417 3.29288 3.75035 3.375 3.75035C3.45712 3.75035 3.53844 3.73417 3.61431 3.70275C3.69018 3.67132 3.75912 3.62526 3.81719 3.56719C3.87526 3.50912 3.92132 3.44018 3.95275 3.36431C3.98417 3.28844 4.00035 3.20712 4.00035 3.125C4.00035 3.04288 3.98417 2.96156 3.95275 2.88569C3.92132 2.80982 3.87526 2.74088 3.81719 2.68281L3.19219 2.05781C3.07491 1.94054 2.91585 1.87465 2.75 1.87465C2.58415 1.87465 2.42509 1.94054 2.30781 2.05781C2.19054 2.17509 2.12465 2.33415 2.12465 2.5C2.12465 2.66585 2.19054 2.82491 2.30781 2.94219L2.93281 3.56719ZM17.125 13.75V15.625C17.125 15.9565 16.9933 16.2745 16.7589 16.5089C16.5245 16.7433 16.2065 16.875 15.875 16.875H2.125C1.79348 16.875 1.47554 16.7433 1.24112 16.5089C1.0067 16.2745 0.875 15.9565 0.875 15.625V13.75C0.875 13.4185 1.0067 13.1005 1.24112 12.8661C1.47554 12.6317 1.79348 12.5 2.125 12.5V10C2.12497 9.09274 2.30452 8.19445 2.65329 7.3569C3.00206 6.51936 3.51315 5.75913 4.15711 5.12004C4.80107 4.48095 5.56515 3.97564 6.40532 3.63323C7.24548 3.29082 8.14511 3.11809 9.05234 3.125C12.8141 3.15313 15.875 6.27266 15.875 10.0781V12.5C16.2065 12.5 16.5245 12.6317 16.7589 12.8661C16.9933 13.1005 17.125 13.4185 17.125 13.75ZM9.52187 6.86641C11.0055 7.11562 12.125 8.4625 12.125 10C12.125 10.1658 12.1908 10.3247 12.3081 10.4419C12.4253 10.5592 12.5842 10.625 12.75 10.625C12.9158 10.625 13.0747 10.5592 13.1919 10.4419C13.3092 10.3247 13.375 10.1658 13.375 10C13.375 7.85938 11.807 5.98203 9.72813 5.63359C9.64682 5.61922 9.56348 5.62109 9.4829 5.63911C9.40233 5.65712 9.32612 5.69092 9.25869 5.73856C9.19125 5.7862 9.13392 5.84672 9.09001 5.91664C9.0461 5.98656 9.01648 6.06448 9.00285 6.14592C8.98923 6.22735 8.99187 6.31067 9.01064 6.39107C9.0294 6.47148 9.06391 6.54737 9.11217 6.61436C9.16043 6.68135 9.22148 6.73812 9.2918 6.78138C9.36212 6.82464 9.44032 6.85354 9.52187 6.86641ZM15.875 15.625V13.75H2.125V15.625H15.875Z" fill="#F75D4D"/>
</svg>
